<?xml version="1.0" standalone="no"?>
<!DOCTYPE svg PUBLIC "-//W3C//DTD SVG 20010904//EN"
 "http://www.w3.org/TR/2001/REC-SVG-20010904/DTD/svg10.dtd">
<svg version="1.0" xmlns="http://www.w3.org/2000/svg"
 width="1028.000000pt" height="1028.000000pt" viewBox="0 0 1028.000000 1028.000000"
 preserveAspectRatio="xMidYMid meet">
<metadata>
Created by potrace 1.14, written by Peter Selinger 2001-2017
</metadata>
<g transform="translate(0.000000,1028.000000) scale(0.100000,-0.100000)"
fill="#000000" stroke="none">
<path d="M4799 7183 c-52 -14 -105 -26 -119 -29 -21 -4 -48 -10 -82 -19 -5 -2
-10 -4 -13 -5 -6 -3 -4 -2 -60 -15 -49 -10 -46 -10 -70 -18 -11 -3 -31 -8 -45
-11 -14 -3 -97 -23 -185 -46 -88 -22 -171 -43 -185 -45 -14 -2 -49 -11 -77
-19 -29 -8 -53 -12 -53 -9 0 3 -6 0 -13 -6 -8 -6 -27 -12 -43 -14 -17 -2 -34
-6 -39 -9 -10 -5 -87 -21 -93 -19 -1 1 -9 -4 -16 -11 -28 -26 -56 -48 -64 -48
-4 0 -24 -27 -45 -60 -37 -60 -58 -111 -73 -180 -4 -19 -8 -384 -8 -810 -1
-833 -2 -815 50 -892 27 -38 90 -85 127 -95 12 -3 49 -7 83 -9 109 -5 100 -12
739 629 516 517 584 589 613 647 18 36 35 76 38 90 3 14 8 39 12 55 3 17 6
183 7 370 0 304 -2 346 -18 395 -23 65 -58 117 -104 150 -19 14 -40 30 -46 35
-7 6 -21 11 -32 12 -11 1 -36 4 -56 6 -20 2 -79 -7 -130 -20z"/>
<path d="M5883 5689 c-18 -3 -44 -14 -58 -23 -14 -9 -25 -13 -25 -10 0 13 -80
-77 -96 -107 -24 -47 -26 -63 -29 -205 -3 -145 -4 -143 68 -158 23 -6 27 -3
28 16 0 13 2 77 3 143 2 66 5 127 8 135 15 54 79 109 131 114 17 2 37 5 42 6
6 1 12 1 15 0 3 -1 19 -4 35 -6 48 -8 129 -67 163 -120 41 -65 49 -105 47
-262 0 -97 3 -136 12 -144 7 -6 13 -8 13 -5 0 3 16 -1 35 -9 l35 -14 1 32 c3
96 -1 307 -7 333 -11 55 -55 133 -103 182 -46 48 -153 109 -171 98 -5 -3 -11
-1 -14 4 -7 10 -86 11 -133 0z"/>
<path d="M4878 5500 c-10 -6 -18 -8 -18 -5 0 28 -145 -108 -630 -594 -311
-311 -577 -582 -591 -601 -40 -53 -85 -149 -99 -210 -7 -30 -12 -55 -10 -55 2
0 -2 -10 -8 -22 -8 -15 -9 -24 -2 -28 6 -4 7 -12 3 -18 -10 -14 -9 -493 1
-552 25 -147 130 -290 228 -309 13 -2 35 -9 51 -15 15 -6 27 -9 27 -6 0 2 17
-2 38 -8 20 -7 44 -13 52 -12 8 1 20 -2 25 -6 6 -4 24 -9 40 -12 17 -3 37 -8
45 -11 8 -3 26 -8 40 -11 14 -2 72 -16 130 -31 58 -14 112 -27 120 -29 8 -2
16 -4 18 -5 2 -3 2 -3 57 -15 22 -4 46 -10 53 -12 6 -1 18 -4 25 -6 6 -1 18
-6 25 -10 6 -5 12 -6 12 -3 0 2 15 0 33 -5 17 -5 46 -12 62 -15 28 -5 48 -10
128 -34 18 -5 42 -10 54 -10 11 0 23 -3 27 -7 22 -23 143 -20 197 4 46 21 109
74 109 93 0 5 4 10 8 10 9 0 29 47 46 110 10 35 12 297 12 1155 l-1 1110 -26
50 c-39 74 -114 124 -199 131 -39 3 -72 0 -82 -6z m-528 -2045 c17 -9 39 -33
50 -55 39 -77 0 -188 -69 -193 -11 -1 -21 -4 -21 -8 0 -9 -59 4 -86 19 -57 30
-78 140 -39 195 39 53 109 71 165 42z"/>
<path d="M5510 5090 c-78 -14 -139 -76 -158 -159 -3 -14 -6 -229 -6 -477 -1
-432 0 -451 18 -470 11 -10 23 -19 27 -19 4 0 10 -3 14 -6 10 -11 50 4 86 33
19 15 52 41 74 58 59 45 106 83 121 98 7 6 17 12 23 12 6 0 11 3 11 8 0 4 27
27 60 51 33 24 60 49 60 55 0 7 -16 29 -35 49 -19 20 -35 39 -35 42 0 5 -38
51 -67 80 -39 41 -15 102 36 91 14 -4 37 -8 51 -10 14 -2 36 -7 50 -10 49 -11
215 -47 235 -51 93 -18 120 -23 120 -25 0 -1 13 -4 29 -6 35 -6 60 -29 52 -49
-3 -8 -1 -17 5 -20 5 -4 6 -13 0 -22 -4 -9 -5 -30 -1 -48 4 -18 4 -39 0 -46
-5 -7 -5 -22 0 -34 5 -12 5 -27 0 -34 -4 -7 -4 -28 0 -46 4 -18 4 -38 0 -45
-4 -7 -4 -27 0 -46 4 -19 4 -36 0 -39 -5 -3 -5 -18 0 -34 4 -16 6 -32 3 -34
-2 -3 -6 -24 -7 -46 -4 -48 -5 -50 -36 -56 -24 -5 -43 11 -111 95 -24 30 -55
68 -70 83 l-25 28 -115 -91 c-62 -50 -121 -96 -129 -103 -8 -7 -56 -43 -105
-82 -50 -38 -92 -72 -95 -75 -3 -3 -23 -18 -45 -34 -61 -45 -131 -121 -154
-168 -39 -82 -48 -142 -46 -322 2 -184 12 -229 65 -285 31 -32 101 -61 133
-56 15 3 37 7 50 9 66 12 765 189 784 198 61 30 113 109 131 198 11 53 8 1417
-3 1475 -14 78 -81 166 -138 184 -26 8 -103 30 -127 36 -39 10 -79 19 -95 21
-11 2 -56 13 -100 25 -44 11 -87 23 -95 24 -8 2 -15 4 -15 5 0 1 -9 3 -20 5
-16 3 -251 60 -290 70 -5 1 -13 3 -17 4 -4 1 -20 6 -35 10 -16 4 -44 4 -63 1z"/>
</g>
</svg>
